<svg xmlns="http://www.w3.org/2000/svg" xmlns:xlink="http://www.w3.org/1999/xlink" contentStyleType="text/css" data-diagram-type="CLASS" height="473px" preserveAspectRatio="none" style="width:760px;height:473px;background:#FFFFFF;" version="1.1" viewBox="0 0 760 473" width="760px" zoomAndPan="magnify"><defs/><g><!--class abstract--><g class="entity" data-entity="abstract" data-source-line="1" data-uid="ent0002" id="entity_abstract"><rect fill="#F1F1F1" height="48" rx="2.5" ry="2.5" style="stroke:#181818;stroke-width:0.5;" width="81.7998" x="7" y="7"/><ellipse cx="22" cy="23" fill="#A9DCDF" rx="11" ry="11" style="stroke:#181818;stroke-width:1;"/><path d="M24.1875,24.7656 L20.0469,24.7656 L19.625,25.7969 L20.0469,25.7969 Q20.6563,25.7969 20.9219,26.0313 Q21.1875,26.2656 21.1875,26.6563 Q21.1875,27.0313 20.9219,27.2656 Q20.6563,27.5 20.0469,27.5 L17.75,27.5 Q17.1406,27.5 16.8906,27.2656 Q16.625,27.0313 16.625,26.6406 Q16.625,26.2656 16.9063,26.0313 Q17.1719,25.7813 17.7969,25.7969 L20.4688,19.1406 L19.3594,19.1406 Q18.75,19.1406 18.4844,18.9063 Q18.2188,18.6719 18.2188,18.2813 Q18.2188,17.9063 18.4844,17.6719 Q18.75,17.4375 19.3594,17.4375 L23.0313,17.4375 L26.4219,25.7969 Q27.0156,25.7969 27.2031,25.9375 Q27.5938,26.2031 27.5938,26.6563 Q27.5938,27.0313 27.3281,27.2656 Q27.0781,27.5 26.4688,27.5 L24.1719,27.5 Q23.5625,27.5 23.2969,27.2656 Q23.0313,27.0313 23.0313,26.6406 Q23.0313,26.2656 23.2969,26.0313 Q23.5625,25.7969 24.1719,25.7969 L24.5938,25.7969 L24.1875,24.7656 Z M23.4688,23.0625 L22.1094,19.6875 L20.7344,23.0625 L23.4688,23.0625 Z " fill="#000000"/><text fill="#000000" font-family="sans-serif" font-size="14" font-style="italic" lengthAdjust="spacing" textLength="49.7998" x="36" y="28.7285">abstract</text><line style="stroke:#181818;stroke-width:0.5;" x1="8" x2="87.7998" y1="39" y2="39"/><line style="stroke:#181818;stroke-width:0.5;" x1="8" x2="87.7998" y1="47" y2="47"/></g><!--class abstract class--><g class="entity" data-entity="abstract class" data-source-line="2" data-uid="ent0003" id="entity_abstract class"><rect fill="#F1F1F1" height="48" rx="2.5" ry="2.5" style="stroke:#181818;stroke-width:0.5;" width="117.5859" x="124" y="7"/><ellipse cx="139" cy="23" fill="#A9DCDF" rx="11" ry="11" style="stroke:#181818;stroke-width:1;"/><path d="M141.1875,24.7656 L137.0469,24.7656 L136.625,25.7969 L137.0469,25.7969 Q137.6563,25.7969 137.9219,26.0313 Q138.1875,26.2656 138.1875,26.6563 Q138.1875,27.0313 137.9219,27.2656 Q137.6563,27.5 137.0469,27.5 L134.75,27.5 Q134.1406,27.5 133.8906,27.2656 Q133.625,27.0313 133.625,26.6406 Q133.625,26.2656 133.9063,26.0313 Q134.1719,25.7813 134.7969,25.7969 L137.4688,19.1406 L136.3594,19.1406 Q135.75,19.1406 135.4844,18.9063 Q135.2188,18.6719 135.2188,18.2813 Q135.2188,17.9063 135.4844,17.6719 Q135.75,17.4375 136.3594,17.4375 L140.0313,17.4375 L143.4219,25.7969 Q144.0156,25.7969 144.2031,25.9375 Q144.5938,26.2031 144.5938,26.6563 Q144.5938,27.0313 144.3281,27.2656 Q144.0781,27.5 143.4688,27.5 L141.1719,27.5 Q140.5625,27.5 140.2969,27.2656 Q140.0313,27.0313 140.0313,26.6406 Q140.0313,26.2656 140.2969,26.0313 Q140.5625,25.7969 141.1719,25.7969 L141.5938,25.7969 L141.1875,24.7656 Z M140.4688,23.0625 L139.1094,19.6875 L137.7344,23.0625 L140.4688,23.0625 Z " fill="#000000"/><text fill="#000000" font-family="sans-serif" font-size="14" font-style="italic" lengthAdjust="spacing" textLength="85.5859" x="153" y="28.7285">abstract class</text><line style="stroke:#181818;stroke-width:0.5;" x1="125" x2="240.5859" y1="39" y2="39"/><line style="stroke:#181818;stroke-width:0.5;" x1="125" x2="240.5859" y1="47" y2="47"/></g><!--class annotation--><g class="entity" data-entity="annotation" data-source-line="3" data-uid="ent0004" id="entity_annotation"><rect fill="#F1F1F1" height="48" rx="2.5" ry="2.5" style="stroke:#181818;stroke-width:0.5;" width="97.3926" x="277.5" y="7"/><ellipse cx="292.5" cy="23" fill="#E3664A" rx="11" ry="11" style="stroke:#181818;stroke-width:1;"/><path d="M294.8438,20.5781 L294.8438,20.0625 Q294.8438,19.2344 294.3594,18.7344 Q293.8906,18.2344 293.1406,18.2344 Q292.5469,18.2344 292.0156,18.6406 Q291.4844,19.0313 291.2188,19.6563 Q290.75,20.75 290.75,21.8594 L290.75,24.375 Q290.75,26.2969 291.6094,27.4219 Q292.1719,28.1719 293.1875,28.1719 Q293.7344,28.1719 294.1719,28.0313 Q294.625,27.8906 294.875,27.6406 Q295.125,27.3906 295.3438,27.3906 Q295.6094,27.3906 295.7969,27.5781 Q295.9844,27.7656 295.9844,28.0313 Q295.9844,28.4531 295.4063,28.8438 Q294.5781,29.4063 293.1406,29.4063 Q292.0469,29.4063 291.3281,28.9063 Q290.4063,28.2656 289.9531,27 Q289.5,25.7344 289.5,24.5 L289.5,21.7656 Q289.5,19.7813 290.4844,18.3906 Q291.4688,16.9844 293.1094,16.9844 Q293.8594,16.9844 294.5,17.2969 Q295.1563,17.5938 295.625,18.3594 Q296.0938,19.125 296.0938,20.0625 L296.0938,24.5938 Q296.4531,24.7656 296.4531,25.1563 Q296.4531,25.4375 296.25,25.625 Q296.0625,25.7969 295.5938,25.7969 L294.8438,25.7969 L294.8438,25.75 Q294.4531,25.8125 294.2656,25.8125 Q293.2656,25.8125 292.5156,25.0781 Q291.7813,24.3281 291.7813,23.3281 Q291.7813,22.2656 292.5938,21.4688 Q293.4219,20.6719 294.8438,20.5781 Z M294.8438,21.8594 Q293.9531,21.9531 293.4844,22.375 Q293.0313,22.7969 293.0313,23.3438 Q293.0313,23.8281 293.4063,24.1719 Q293.7969,24.5156 294.4375,24.5156 Q294.5625,24.5156 294.8438,24.5 L294.8438,21.8594 Z " fill="#000000"/><text fill="#000000" font-family="sans-serif" font-size="14" lengthAdjust="spacing" textLength="65.3926" x="306.5" y="28.7285">annotation</text><line style="stroke:#181818;stroke-width:0.5;" x1="278.5" x2="373.8926" y1="39" y2="39"/><line style="stroke:#181818;stroke-width:0.5;" x1="278.5" x2="373.8926" y1="47" y2="47"/></g><!--class entity--><g class="entity" data-entity="entity" data-source-line="4" data-uid="ent0005" id="entity_entity"><rect fill="#F1F1F1" height="48" rx="2.5" ry="2.5" style="stroke:#181818;stroke-width:0.5;" width="65.4619" x="15.5" y="276"/><ellipse cx="30.5" cy="292" fill="#ADD1B2" rx="11" ry="11" style="stroke:#181818;stroke-width:1;"/><path d="M29.3594,292.7969 L29.3594,295.2969 L33.6875,295.2969 L33.6875,294.375 Q33.6875,293.7656 33.9219,293.5 Q34.1719,293.2344 34.5469,293.2344 Q34.9219,293.2344 35.1563,293.5 Q35.3906,293.7656 35.3906,294.375 L35.3906,297 L27.3906,297 Q26.7656,297 26.5,296.7656 Q26.25,296.5313 26.25,296.1406 Q26.25,295.7656 26.5156,295.5313 Q26.7813,295.2969 27.3906,295.2969 L27.6563,295.2969 L27.6563,288.6406 L27.3906,288.6406 Q26.7656,288.6406 26.5,288.4063 Q26.25,288.1719 26.25,287.7813 Q26.25,287.4063 26.5,287.1719 Q26.7656,286.9375 27.3906,286.9375 L35.0156,286.9375 L35.0156,289.5313 Q35.0156,290.1406 34.7813,290.4063 Q34.5625,290.6563 34.1719,290.6563 Q33.7969,290.6563 33.5625,290.4063 Q33.3281,290.1406 33.3281,289.5313 L33.3281,288.6406 L29.3594,288.6406 L29.3594,291.0938 L30.8438,291.0938 Q30.8438,290.4375 30.9688,290.25 Q31.2344,289.8438 31.7031,289.8438 Q32.0781,289.8438 32.3125,290.1094 Q32.5469,290.3594 32.5469,290.9688 L32.5469,292.9375 Q32.5469,293.4844 32.4219,293.6719 Q32.1563,294.0625 31.7031,294.0625 Q31.2344,294.0625 30.9688,293.6563 Q30.8438,293.4688 30.8438,292.7969 L29.3594,292.7969 Z " fill="#000000"/><text fill="#000000" font-family="sans-serif" font-size="14" lengthAdjust="spacing" textLength="33.4619" x="44.5" y="297.7285">entity</text><line style="stroke:#181818;stroke-width:0.5;" x1="16.5" x2="79.9619" y1="308" y2="308"/><line style="stroke:#181818;stroke-width:0.5;" x1="16.5" x2="79.9619" y1="316" y2="316"/></g><!--class enum--><g class="entity" data-entity="enum" data-source-line="5" data-uid="ent0006" id="entity_enum"><rect fill="#F1F1F1" height="48" rx="2.5" ry="2.5" style="stroke:#181818;stroke-width:0.5;" width="67.0205" x="115.5" y="276"/><ellipse cx="130.5" cy="292" fill="#EB937F" rx="11" ry="11" style="stroke:#181818;stroke-width:1;"/><path d="M129.3594,292.7969 L129.3594,295.2969 L133.6875,295.2969 L133.6875,294.375 Q133.6875,293.7656 133.9219,293.5 Q134.1719,293.2344 134.5469,293.2344 Q134.9219,293.2344 135.1563,293.5 Q135.3906,293.7656 135.3906,294.375 L135.3906,297 L127.3906,297 Q126.7656,297 126.5,296.7656 Q126.25,296.5313 126.25,296.1406 Q126.25,295.7656 126.5156,295.5313 Q126.7813,295.2969 127.3906,295.2969 L127.6563,295.2969 L127.6563,288.6406 L127.3906,288.6406 Q126.7656,288.6406 126.5,288.4063 Q126.25,288.1719 126.25,287.7813 Q126.25,287.4063 126.5,287.1719 Q126.7656,286.9375 127.3906,286.9375 L135.0156,286.9375 L135.0156,289.5313 Q135.0156,290.1406 134.7813,290.4063 Q134.5625,290.6563 134.1719,290.6563 Q133.7969,290.6563 133.5625,290.4063 Q133.3281,290.1406 133.3281,289.5313 L133.3281,288.6406 L129.3594,288.6406 L129.3594,291.0938 L130.8438,291.0938 Q130.8438,290.4375 130.9688,290.25 Q131.2344,289.8438 131.7031,289.8438 Q132.0781,289.8438 132.3125,290.1094 Q132.5469,290.3594 132.5469,290.9688 L132.5469,292.9375 Q132.5469,293.4844 132.4219,293.6719 Q132.1563,294.0625 131.7031,294.0625 Q131.2344,294.0625 130.9688,293.6563 Q130.8438,293.4688 130.8438,292.7969 L129.3594,292.7969 Z " fill="#000000"/><text fill="#000000" font-family="sans-serif" font-size="14" lengthAdjust="spacing" textLength="35.0205" x="144.5" y="297.7285">enum</text><line style="stroke:#181818;stroke-width:0.5;" x1="116.5" x2="181.5205" y1="308" y2="308"/><line style="stroke:#181818;stroke-width:0.5;" x1="116.5" x2="181.5205" y1="316" y2="316"/></g><!--class exception--><g class="entity" data-entity="exception" data-source-line="6" data-uid="ent0007" id="entity_exception"><rect fill="#F1F1F1" height="32" rx="2.5" ry="2.5" style="stroke:#181818;stroke-width:0.5;" width="91.9307" x="362" y="284"/><ellipse cx="377" cy="300" fill="#D94321" rx="11" ry="11" style="stroke:#181818;stroke-width:1;"/><path d="M378.7188,299.875 L381.5625,303.2969 Q382.0625,303.3125 382.3125,303.5469 Q382.5625,303.7813 382.5625,304.1563 Q382.5625,304.5313 382.2969,304.7656 Q382.0469,305 381.4375,305 L379.5156,305 Q378.9063,305 378.6406,304.7656 Q378.3906,304.5313 378.3906,304.1406 Q378.3906,303.7813 378.625,303.5469 Q378.8594,303.3125 379.3438,303.2969 L377.6406,301.1875 L375.9063,303.2969 Q376.3906,303.3125 376.625,303.5625 Q376.8594,303.7969 376.8594,304.1563 Q376.8594,304.5313 376.5938,304.7656 Q376.3438,305 375.7344,305 L373.8125,305 Q373.2031,305 372.9375,304.7656 Q372.6875,304.5313 372.6875,304.1406 Q372.6875,303.7813 372.9375,303.5469 Q373.2031,303.2969 373.7031,303.2969 L376.5156,299.8594 L373.8281,296.6406 Q373.3281,296.625 373.0781,296.3906 Q372.8438,296.1563 372.8438,295.7813 Q372.8438,295.4063 373.0938,295.1719 Q373.3594,294.9375 373.9844,294.9375 L375.5469,294.9375 Q376.1563,294.9375 376.4219,295.1719 Q376.6875,295.4063 376.6875,295.7813 Q376.6875,296.0625 376.5156,296.2969 Q376.4063,296.4375 376.0313,296.6406 L377.625,298.5469 L379.1719,296.6406 Q378.7969,296.4375 378.6875,296.2969 Q378.5313,296.0625 378.5313,295.7813 Q378.5313,295.4063 378.7813,295.1719 Q379.0469,294.9375 379.6563,294.9375 L381.2188,294.9375 Q381.8438,294.9375 382.0938,295.1719 Q382.3594,295.4063 382.3594,295.7813 Q382.3594,296.1563 382.1094,296.3906 Q381.8594,296.625 381.375,296.6406 L378.7188,299.875 Z " fill="#000000"/><text fill="#000000" font-family="sans-serif" font-size="14" lengthAdjust="spacing" textLength="59.9307" x="391" y="305.7285">exception</text></g><!--class interface--><g class="entity" data-entity="interface" data-source-line="7" data-uid="ent0008" id="entity_interface"><rect fill="#F1F1F1" height="32" rx="2.5" ry="2.5" style="stroke:#181818;stroke-width:0.5;" width="85.6963" x="410" y="15"/><ellipse cx="425" cy="31" fill="#B4A7E5" rx="11" ry="11" style="stroke:#181818;stroke-width:1;"/><path d="M425.9531,27.6406 L425.9531,34.2969 L427.6719,34.2969 Q428.2813,34.2969 428.5469,34.5313 Q428.8125,34.7656 428.8125,35.1563 Q428.8125,35.5313 428.5469,35.7656 Q428.2813,36 427.6719,36 L422.5313,36 Q421.9219,36 421.6563,35.7656 Q421.3906,35.5313 421.3906,35.1406 Q421.3906,34.7656 421.6563,34.5313 Q421.9219,34.2969 422.5313,34.2969 L424.25,34.2969 L424.25,27.6406 L422.5313,27.6406 Q421.9219,27.6406 421.6563,27.4063 Q421.3906,27.1719 421.3906,26.7813 Q421.3906,26.4063 421.6563,26.1719 Q421.9219,25.9375 422.5313,25.9375 L427.6719,25.9375 Q428.2813,25.9375 428.5469,26.1719 Q428.8125,26.4063 428.8125,26.7813 Q428.8125,27.1719 428.5469,27.4063 Q428.2813,27.6406 427.6719,27.6406 L425.9531,27.6406 Z " fill="#000000"/><text fill="#000000" font-family="sans-serif" font-size="14" font-style="italic" lengthAdjust="spacing" textLength="53.6963" x="439" y="36.7285">interface</text></g><!--class metaclass--><g class="entity" data-entity="metaclass" data-source-line="8" data-uid="ent0009" id="entity_metaclass"><rect fill="#F1F1F1" height="32" rx="2.5" ry="2.5" style="stroke:#181818;stroke-width:0.5;" width="95.0205" x="514.5" y="284"/><ellipse cx="529.5" cy="300" fill="#CCCCCC" rx="11" ry="11" style="stroke:#181818;stroke-width:1;"/><path d="M527.4375,298.2188 L527.4375,303.2969 L528.0625,303.2969 Q528.6719,303.2969 528.9219,303.5313 Q529.1875,303.7656 529.1875,304.1563 Q529.1875,304.5313 528.9219,304.7656 Q528.6719,305 528.0625,305 L525.8281,305 Q525.2031,305 524.9531,304.7656 Q524.6875,304.5313 524.6875,304.1406 Q524.6875,303.7656 524.9531,303.5313 Q525.2031,303.2969 525.7344,303.2969 L525.7344,296.6406 Q525.2969,296.5938 525.0625,296.375 Q524.8281,296.1406 524.8281,295.7813 Q524.8281,295.4063 525.0938,295.1719 Q525.3594,294.9375 525.9688,294.9375 L527.8438,294.9375 L530.1563,300.0625 L532.4219,294.9375 L534.3125,294.9375 Q534.9219,294.9375 535.1875,295.1719 Q535.4531,295.4063 535.4531,295.7813 Q535.4531,296.1406 535.2188,296.375 Q534.9844,296.5938 534.5469,296.6406 L534.5469,303.2969 Q535.0781,303.2969 535.3281,303.5469 Q535.5938,303.7813 535.5938,304.1563 Q535.5938,304.5313 535.3281,304.7656 Q535.0781,305 534.4688,305 L532.2188,305 Q531.6094,305 531.3438,304.7656 Q531.0938,304.5313 531.0938,304.1406 Q531.0938,303.7656 531.3438,303.5313 Q531.6094,303.2969 532.2188,303.2969 L532.8438,303.2969 L532.8438,298.2188 L530.8906,302.6094 L529.4219,302.6094 L527.4375,298.2188 Z " fill="#000000"/><text fill="#000000" font-family="sans-serif" font-size="14" lengthAdjust="spacing" textLength="63.0205" x="543.5" y="305.7285">metaclass</text></g><!--class protocol--><g class="entity" data-entity="protocol" data-source-line="9" data-uid="ent0010" id="entity_protocol"><rect fill="#F1F1F1" height="32" rx="2.5" ry="2.5" style="stroke:#181818;stroke-width:0.5;" width="81.8066" x="547" y="15"/><ellipse cx="562" cy="31" fill="#F1F1F1" rx="11" ry="11" style="stroke:#181818;stroke-width:1;"/><path d="M562.625,32.5469 L562.625,34.2969 L564.3281,34.2969 Q564.9531,34.2969 565.2031,34.5313 Q565.4688,34.7656 565.4688,35.1563 Q565.4688,35.5313 565.2031,35.7656 Q564.9531,36 564.3281,36 L560.6563,36 Q560.0313,36 559.7656,35.7656 Q559.5156,35.5313 559.5156,35.1406 Q559.5156,34.7656 559.7813,34.5313 Q560.0469,34.2969 560.6563,34.2969 L560.9219,34.2969 L560.9219,27.6406 L560.6563,27.6406 Q560.0313,27.6406 559.7656,27.4063 Q559.5156,27.1719 559.5156,26.7813 Q559.5156,26.4063 559.7656,26.1719 Q560.0313,25.9375 560.6563,25.9375 L564.5625,25.9375 Q566.2969,25.9375 567.2969,26.8906 Q568.3125,27.8281 568.3125,29.1719 Q568.3125,29.9219 567.9688,30.5938 Q567.7188,31.0781 567.1094,31.5781 Q566.5156,32.0625 565.875,32.3125 Q565.25,32.5469 564.2344,32.5469 L562.625,32.5469 Z M562.625,30.8438 L564.1875,30.8438 Q565.3125,30.8438 565.9531,30.3438 Q566.6094,29.8438 566.6094,29.1406 Q566.6094,28.5313 566.0781,28.0938 Q565.5625,27.6406 564.5781,27.6406 L562.625,27.6406 L562.625,30.8438 Z " fill="#000000"/><text fill="#000000" font-family="sans-serif" font-size="14" lengthAdjust="spacing" textLength="49.8066" x="576" y="36.7285">protocol</text></g><!--class stereotype--><g class="entity" data-entity="stereotype" data-source-line="10" data-uid="ent0011" id="entity_stereotype"><rect fill="#F1F1F1" height="32" rx="2.5" ry="2.5" style="stroke:#181818;stroke-width:0.5;" width="97.3721" x="656.5" y="284"/><ellipse cx="671.5" cy="300" fill="#FF77FF" rx="11" ry="11" style="stroke:#181818;stroke-width:1;"/><path d="M669.6094,304.5625 Q669.3906,304.8281 669.25,304.9063 Q669.1094,304.9844 668.9219,304.9844 Q668.5313,304.9844 668.2813,304.7188 Q668.0469,304.4531 668.0469,303.8594 L668.0469,302.7031 Q668.0469,302.0938 668.2813,301.8438 Q668.5313,301.5781 668.9219,301.5781 Q669.2188,301.5781 669.4219,301.7344 Q669.625,301.8906 669.7344,302.2656 Q669.8438,302.625 669.9531,302.7656 Q670.2031,303.0156 670.8125,303.2813 Q671.4219,303.5469 672.1563,303.5469 Q673.2969,303.5469 674.0156,303.0156 Q674.4844,302.6875 674.4844,302.2188 Q674.4844,301.9063 674.2656,301.625 Q674.0469,301.3438 673.5313,301.1719 Q673.2031,301.0469 672.0469,300.8281 Q670.6563,300.5625 669.9375,300.2031 Q669.2188,299.8438 668.7969,299.1875 Q668.3906,298.5156 668.3906,297.7344 Q668.3906,296.5156 669.4063,295.6094 Q670.4375,294.6875 672.0781,294.6875 Q672.7344,294.6875 673.2813,294.8281 Q673.8438,294.9688 674.3125,295.2656 Q674.6406,294.9531 674.9688,294.9531 Q675.3438,294.9531 675.5781,295.2188 Q675.8125,295.4688 675.8125,296.0781 L675.8125,297.3594 Q675.8125,297.9688 675.5781,298.2344 Q675.3438,298.4844 674.9688,298.4844 Q674.6563,298.4844 674.4219,298.2969 Q674.2344,298.1563 674.1406,297.7344 Q674.0625,297.3125 673.9219,297.125 Q673.6719,296.8125 673.1875,296.6094 Q672.7188,296.3906 672.0781,296.3906 Q671.1563,296.3906 670.625,296.8125 Q670.0938,297.2344 670.0938,297.7031 Q670.0938,298.0156 670.3125,298.3125 Q670.5313,298.6094 670.9531,298.7813 Q671.2344,298.8906 672.5313,299.1563 Q673.8438,299.4063 674.5469,299.7188 Q675.25,300.0156 675.7188,300.6719 Q676.1875,301.3281 676.1875,302.2344 Q676.1875,303.5 675.2969,304.25 Q674.1094,305.25 672.2813,305.25 Q671.5781,305.25 670.9063,305.0781 Q670.25,304.9063 669.6094,304.5625 Z " fill="#000000"/><text fill="#000000" font-family="sans-serif" font-size="14" lengthAdjust="spacing" textLength="65.3721" x="685.5" y="305.7285">stereotype</text></g><!--class struct--><g class="entity" data-entity="struct" data-source-line="11" data-uid="ent0012" id="entity_struct"><rect fill="#F1F1F1" height="32" rx="2.5" ry="2.5" style="stroke:#181818;stroke-width:0.5;" width="66.2275" x="672" y="15"/><ellipse cx="687" cy="31" fill="#F1F1F1" rx="11" ry="11" style="stroke:#181818;stroke-width:1;"/><path d="M685.1094,35.5625 Q684.8906,35.8281 684.75,35.9063 Q684.6094,35.9844 684.4219,35.9844 Q684.0313,35.9844 683.7813,35.7188 Q683.5469,35.4531 683.5469,34.8594 L683.5469,33.7031 Q683.5469,33.0938 683.7813,32.8438 Q684.0313,32.5781 684.4219,32.5781 Q684.7188,32.5781 684.9219,32.7344 Q685.125,32.8906 685.2344,33.2656 Q685.3438,33.625 685.4531,33.7656 Q685.7031,34.0156 686.3125,34.2813 Q686.9219,34.5469 687.6563,34.5469 Q688.7969,34.5469 689.5156,34.0156 Q689.9844,33.6875 689.9844,33.2188 Q689.9844,32.9063 689.7656,32.625 Q689.5469,32.3438 689.0313,32.1719 Q688.7031,32.0469 687.5469,31.8281 Q686.1563,31.5625 685.4375,31.2031 Q684.7188,30.8438 684.2969,30.1875 Q683.8906,29.5156 683.8906,28.7344 Q683.8906,27.5156 684.9063,26.6094 Q685.9375,25.6875 687.5781,25.6875 Q688.2344,25.6875 688.7813,25.8281 Q689.3438,25.9688 689.8125,26.2656 Q690.1406,25.9531 690.4688,25.9531 Q690.8438,25.9531 691.0781,26.2188 Q691.3125,26.4688 691.3125,27.0781 L691.3125,28.3594 Q691.3125,28.9688 691.0781,29.2344 Q690.8438,29.4844 690.4688,29.4844 Q690.1563,29.4844 689.9219,29.2969 Q689.7344,29.1563 689.6406,28.7344 Q689.5625,28.3125 689.4219,28.125 Q689.1719,27.8125 688.6875,27.6094 Q688.2188,27.3906 687.5781,27.3906 Q686.6563,27.3906 686.125,27.8125 Q685.5938,28.2344 685.5938,28.7031 Q685.5938,29.0156 685.8125,29.3125 Q686.0313,29.6094 686.4531,29.7813 Q686.7344,29.8906 688.0313,30.1563 Q689.3438,30.4063 690.0469,30.7188 Q690.75,31.0156 691.2188,31.6719 Q691.6875,32.3281 691.6875,33.2344 Q691.6875,34.5 690.7969,35.25 Q689.6094,36.25 687.7813,36.25 Q687.0781,36.25 686.4063,36.0781 Q685.75,35.9063 685.1094,35.5625 Z " fill="#000000"/><text fill="#000000" font-family="sans-serif" font-size="14" lengthAdjust="spacing" textLength="34.2275" x="701" y="36.7285">struct</text></g><!--class class--><g class="entity" data-entity="class" data-source-line="32" data-uid="ent0019" id="entity_class"><rect fill="#F1F1F1" height="333.75" rx="2.5" ry="2.5" style="stroke:#181818;stroke-width:0.5;" width="96.041" x="218" y="133"/><ellipse cx="247.465" cy="149" fill="#ADD1B2" rx="11" ry="11" style="stroke:#181818;stroke-width:1;"/><path d="M250.2307,144.875 Q250.3869,144.6563 250.5744,144.5469 Q250.7619,144.4375 250.9807,144.4375 Q251.3557,144.4375 251.59,144.7031 Q251.8244,144.9531 251.8244,145.5625 L251.8244,147.0156 Q251.8244,147.625 251.59,147.8906 Q251.3557,148.1563 250.9807,148.1563 Q250.6369,148.1563 250.4338,147.9531 Q250.2307,147.7656 250.1213,147.25 Q250.0744,146.8906 249.8869,146.7031 Q249.5588,146.3281 248.9494,146.1094 Q248.34,145.8906 247.715,145.8906 Q246.9494,145.8906 246.3088,146.2188 Q245.6838,146.5469 245.1838,147.2969 Q244.6994,148.0469 244.6994,149.0781 L244.6994,150.1719 Q244.6994,151.4063 245.59,152.2344 Q246.4807,153.0469 248.0744,153.0469 Q249.0119,153.0469 249.6682,152.7969 Q250.0588,152.6406 250.4807,152.2031 Q250.7463,151.9375 250.8869,151.8594 Q251.0432,151.7813 251.2463,151.7813 Q251.5744,151.7813 251.8244,152.0469 Q252.09,152.2969 252.09,152.6406 Q252.09,152.9844 251.7463,153.3906 Q251.2463,153.9688 250.4494,154.2969 Q249.3713,154.75 248.0744,154.75 Q246.5588,154.75 245.3557,154.125 Q244.3713,153.625 243.6838,152.5625 Q242.9963,151.4844 242.9963,150.2031 L242.9963,149.0469 Q242.9963,147.7188 243.6057,146.5781 Q244.2307,145.4219 245.3244,144.8125 Q246.4182,144.1875 247.6525,144.1875 Q248.3869,144.1875 249.0275,144.3594 Q249.6838,144.5156 250.2307,144.875 Z " fill="#000000"/><text fill="#000000" font-family="sans-serif" font-size="14" lengthAdjust="spacing" textLength="31.8965" x="264.6795" y="154.7285">class</text><line style="stroke:#181818;stroke-width:0.5;" x1="219" x2="313.041" y1="165" y2="165"/><rect fill="none" height="6" style="stroke:#C82930;stroke-width:1;" width="6" x="226" y="197.9141"/><text fill="#000000" font-family="sans-serif" font-size="14" lengthAdjust="spacing" textLength="28" x="238" y="205.1426">&#31169;&#26377;</text><ellipse cx="229" cy="218.5234" fill="none" rx="3" ry="3" style="stroke:#038048;stroke-width:1;"/><text fill="#000000" font-family="sans-serif" font-size="14" lengthAdjust="spacing" textLength="28" x="238" y="222.752">&#20844;&#29992;</text><polygon fill="none" points="229,232.1328,225,238.1328,233,238.1328" style="stroke:#1963A0;stroke-width:1;"/><text fill="#000000" font-family="sans-serif" font-size="14" lengthAdjust="spacing" textLength="56" x="238" y="240.3613">&#20445;&#20869;&#21487;&#35265;</text><polygon fill="none" points="229,248.7422,233,252.7422,229,256.7422,225,252.7422" style="stroke:#B38D22;stroke-width:1;"/><text fill="#000000" font-family="sans-serif" font-size="14" lengthAdjust="spacing" textLength="42" x="238" y="257.9707">&#21463;&#20445;&#25252;</text><line style="stroke:#181818;stroke-width:1;" x1="219" x2="252.0205" y1="181.8047" y2="181.8047"/><line style="stroke:#181818;stroke-width:1;" x1="219" x2="252.0205" y1="183.8047" y2="183.8047"/><text fill="#000000" font-family="sans-serif" font-size="14" lengthAdjust="spacing" textLength="28" x="252.0205" y="187.0332">&#31867;&#22411;</text><line style="stroke:#181818;stroke-width:1;" x1="280.0205" x2="313.041" y1="181.8047" y2="181.8047"/><line style="stroke:#181818;stroke-width:1;" x1="280.0205" x2="313.041" y1="183.8047" y2="183.8047"/><ellipse cx="229" cy="292.9609" fill="none" rx="3" ry="3" style="stroke:#038048;stroke-width:1;"/><text fill="#000000" font-family="sans-serif" font-size="14" lengthAdjust="spacing" text-decoration="underline" textLength="23.3584" x="238" y="297.1895">eee</text><ellipse cx="229" cy="310.5703" fill="#84BE84" rx="3" ry="3" style="stroke:#038048;stroke-width:1;"/><text fill="#000000" font-family="sans-serif" font-size="14" font-style="italic" lengthAdjust="spacing" textLength="70.041" x="238" y="314.7988">void eeee()</text><line style="stroke:#181818;stroke-width:1;" x1="219" x2="252.0205" y1="273.8516" y2="273.8516"/><line style="stroke:#181818;stroke-width:1;" x1="219" x2="252.0205" y1="275.8516" y2="275.8516"/><text fill="#000000" font-family="sans-serif" font-size="14" lengthAdjust="spacing" textLength="28" x="252.0205" y="279.0801">&#20854;&#20182;</text><line style="stroke:#181818;stroke-width:1;" x1="280.0205" x2="313.041" y1="273.8516" y2="273.8516"/><line style="stroke:#181818;stroke-width:1;" x1="280.0205" x2="313.041" y1="275.8516" y2="275.8516"/><line style="stroke:#181818;stroke-width:1;" x1="219" x2="238.0205" y1="330.6797" y2="330.6797"/><line style="stroke:#181818;stroke-width:1;" x1="219" x2="238.0205" y1="332.6797" y2="332.6797"/><text fill="#000000" font-family="sans-serif" font-size="14" lengthAdjust="spacing" textLength="56" x="238.0205" y="335.9082">&#20998;&#38548;&#26041;&#24335;</text><line style="stroke:#181818;stroke-width:1;" x1="294.0205" x2="313.041" y1="330.6797" y2="330.6797"/><line style="stroke:#181818;stroke-width:1;" x1="294.0205" x2="313.041" y1="332.6797" y2="332.6797"/><line style="stroke:#181818;stroke-width:1;" x1="219" x2="262.1274" y1="357.0938" y2="357.0938"/><line style="stroke:#181818;stroke-width:1;" x1="219" x2="262.1274" y1="359.0938" y2="359.0938"/><text fill="#000000" font-family="sans-serif" font-size="14" lengthAdjust="spacing" textLength="7.7861" x="262.1274" y="362.3223">1</text><line style="stroke:#181818;stroke-width:1;" x1="269.9136" x2="313.041" y1="357.0938" y2="357.0938"/><line style="stroke:#181818;stroke-width:1;" x1="269.9136" x2="313.041" y1="359.0938" y2="359.0938"/><line style="stroke:#181818;stroke-width:1;" x1="219" x2="262.1274" y1="383.5078" y2="383.5078"/><text fill="#000000" font-family="sans-serif" font-size="14" lengthAdjust="spacing" textLength="7.7861" x="262.1274" y="388.7363">2</text><line style="stroke:#181818;stroke-width:1;" x1="269.9136" x2="313.041" y1="383.5078" y2="383.5078"/><line style="stroke:#181818;stroke-width:0.5;" x1="219" x2="262.1274" y1="409.9219" y2="409.9219"/><text fill="#000000" font-family="sans-serif" font-size="14" lengthAdjust="spacing" textLength="7.7861" x="262.1274" y="415.1504">3</text><line style="stroke:#181818;stroke-width:0.5;" x1="269.9136" x2="313.041" y1="409.9219" y2="409.9219"/><text fill="#000000" font-family="sans-serif" font-size="14" lengthAdjust="spacing" textLength="3.8896" x="224" y="459.6738">&#160;</text><line style="stroke:#181818;stroke-width:1;stroke-dasharray:1.0,2.0;" x1="219" x2="262.1274" y1="436.3359" y2="436.3359"/><text fill="#000000" font-family="sans-serif" font-size="14" lengthAdjust="spacing" textLength="7.7861" x="262.1274" y="441.5645">4</text><line style="stroke:#181818;stroke-width:1;stroke-dasharray:1.0,2.0;" x1="269.9136" x2="313.041" y1="436.3359" y2="436.3359"/></g><!--link struct to stereotype--><g class="link" data-entity-1="struct" data-entity-2="stereotype" data-source-line="15" data-uid="lnk13" id="link_struct_stereotype"><path codeLine="15" d="M698.69,47.12 C690.11,94 686.8814,218.9001 695.4414,266.0001" fill="none" id="struct-to-stereotype" style="stroke:#181818;stroke-width:1;"/><polygon fill="none" points="698.66,283.71,701.3447,264.9272,689.5381,267.073,698.66,283.71" style="stroke:#181818;stroke-width:1;"/></g><!--reverse link struct to stereotype--><g class="link" data-entity-1="struct" data-entity-2="stereotype" data-source-line="16" data-uid="lnk14" id="link_struct_stereotype"><path codeLine="16" d="M715.1027,64.7916 C724.1827,111.6716 720.77,236.61 711.71,283.71" fill="none" id="struct-backto-stereotype" style="stroke:#181818;stroke-width:1;stroke-dasharray:7.0,7.0;"/><polygon fill="none" points="711.68,47.12,709.2122,65.9325,720.9933,63.6507,711.68,47.12" style="stroke:#181818;stroke-width:1;"/></g><!--link protocol to metaclass--><g class="link" data-entity-1="protocol" data-entity-2="metaclass" data-source-line="20" data-uid="lnk15" id="link_protocol_metaclass"><path codeLine="20" d="M563.38,47.18 C550.87,56.4 536.88,69.4 530,85 C499.31,154.61 534.6171,242.5744 551.7871,278.5744" fill="none" id="protocol-to-metaclass" style="stroke:#FFC0CB;stroke-width:2;"/><polygon fill="#FFC0CB" points="554.37,283.99,554.106,274.1447,552.2176,279.477,546.8852,277.5886,554.37,283.99" style="stroke:#FFC0CB;stroke-width:2;"/><polygon fill="none" points="536,89.6758,540,93.6758,536,97.6758,532,93.6758" style="stroke:#B38D22;stroke-width:1;"/><text fill="#000000" font-family="sans-serif" font-size="13" lengthAdjust="spacing" textLength="26" x="543" y="99.4951">&#21734;&#21564;</text></g><!--reverse link protocol to metaclass--><g class="link" data-entity-1="protocol" data-entity-2="metaclass" data-source-line="21" data-uid="lnk16" id="link_protocol_metaclass"><path codeLine="21" d="M585.9479,53.0917 C581.3779,99.9717 568.08,236.61 563.49,283.71" fill="none" id="protocol-backto-metaclass" style="stroke:#181818;stroke-width:1;stroke-dasharray:7.0,7.0;"/><polygon fill="#181818" points="586.53,47.12,581.6757,55.6894,586.0449,52.0964,589.6379,56.4656,586.53,47.12" style="stroke:#181818;stroke-width:1;"/><polygon fill="none" points="589,90.6758,585,96.6758,593,96.6758" style="stroke:#1963A0;stroke-width:1;"/><text fill="#000000" font-family="sans-serif" font-size="13" lengthAdjust="spacing" textLength="26" x="596" y="99.4951">&#21253;&#21547;</text></g><!--link interface to exception--><g class="link" data-entity-1="interface" data-entity-2="exception" data-source-line="25" data-uid="lnk17" id="link_interface_exception"><path codeLine="25" d="M409.65,46.15 C391.57,54.44 372.39,66.93 362,85 C323.56,151.88 371.8238,242.1759 394.7738,278.7959" fill="none" id="interface-to-exception" style="stroke:#FF0000;stroke-width:2;stroke-dasharray:7.0,7.0;"/><polygon fill="#FF0000" points="397.96,283.88,396.57,274.1297,395.3048,279.6433,389.7913,278.378,397.96,283.88" style="stroke:#FF0000;stroke-width:2;"/><text fill="#000000" font-family="sans-serif" font-size="13" lengthAdjust="spacing" textLength="52" x="363" y="99.4951">&#22079;&#22079;&#22079;&#21704;</text></g><!--reverse link interface to exception--><g class="link" data-entity-1="interface" data-entity-2="exception" data-source-line="26" data-uid="lnk18" id="link_interface_exception"><path codeLine="26" d="M449.453,53.0366 C441.553,99.9166 418.52,236.61 410.58,283.71" fill="none" id="interface-backto-exception" style="stroke:#0000FF;stroke-width:2;stroke-dasharray:1.0,3.0;"/><polygon fill="#0000FF" points="450.45,47.12,445.0101,55.3302,449.6191,52.0505,452.8988,56.6596,450.45,47.12" style="stroke:#0000FF;stroke-width:2;"/><text fill="#000000" font-family="sans-serif" font-size="13" lengthAdjust="spacing" textLength="26" x="445" y="99.4951">&#21999;&#21756;</text></g><!--SRC=[RLBTQi8m6BtFKmIzsPWjpErAh2yoXiGsmwAsfObZuWzueRWVK51qZ6rNOmusaDqCXe8lOtHxYxKnIQliexGvvyivEKs22eJwoAHG518Oo04qouWG21ExH08Wnt4fehRh2AN203lKfZMeQei3kbg1C4vNAm1VcTYBNA32m7OezY-GYKL7OL3158bOl1G6dkzIrtJBSWc90GcqsAKrJxX5E6ZvrMW3mbQ80IZQ5XOWMA5Im3wHdFAIl9YcQOtSFzRPXgx7wQsDohfZ7lsRfDKyxIpfsKufvPMHxQHeqJPB3YR4I9zhkPWkasJ3LpPOHCAihiVQBNRNOODtaIBQvPqOqR58EfeOvF2nbR8GAGQVlHnAc67tI_4CUp5rDf0NobMSibnAz_Ln-MJ6XWl0QvkSl-iWF2F3s7pEsVEjON2emSsqlNwyvk08iix7PlJ6GGkkba-iss7zsS-qpQaaPFr9mAvlNeGNwtojvcFXTGJh9Bp7PXDYZ2KbRtyJNhgs5NRmmQ6Kzxg_3wFr-9ij-iB4C8vbD2sjQNoKpv_aytoawwUw3a3p3m00]--></g></svg>