<svg xmlns="http://www.w3.org/2000/svg" xmlns:xlink="http://www.w3.org/1999/xlink" contentStyleType="text/css" data-diagram-type="CLASS" height="104px" preserveAspectRatio="none" style="width:196px;height:104px;background:#FFFFFF;" version="1.1" viewBox="0 0 196 104" width="196px" zoomAndPan="magnify"><defs/><g><!--class python??--><g class="entity" data-entity="python&#38382;&#39064;" data-source-line="1" data-uid="ent0002" id="entity_python&#38382;&#39064;"><rect fill="#F1F1F1" height="83.2188" rx="2.5" ry="2.5" style="stroke:#181818;stroke-width:0.5;" width="175.3242" x="7" y="7"/><ellipse cx="55.395" cy="23" fill="#EB937F" rx="11" ry="11" style="stroke:#181818;stroke-width:1;"/><path d="M54.2544,23.7969 L54.2544,26.2969 L58.5825,26.2969 L58.5825,25.375 Q58.5825,24.7656 58.8169,24.5 Q59.0669,24.2344 59.4419,24.2344 Q59.8169,24.2344 60.0513,24.5 Q60.2856,24.7656 60.2856,25.375 L60.2856,28 L52.2856,28 Q51.6606,28 51.395,27.7656 Q51.145,27.5313 51.145,27.1406 Q51.145,26.7656 51.4106,26.5313 Q51.6763,26.2969 52.2856,26.2969 L52.5513,26.2969 L52.5513,19.6406 L52.2856,19.6406 Q51.6606,19.6406 51.395,19.4063 Q51.145,19.1719 51.145,18.7813 Q51.145,18.4063 51.395,18.1719 Q51.6606,17.9375 52.2856,17.9375 L59.9106,17.9375 L59.9106,20.5313 Q59.9106,21.1406 59.6763,21.4063 Q59.4575,21.6563 59.0669,21.6563 Q58.6919,21.6563 58.4575,21.4063 Q58.2231,21.1406 58.2231,20.5313 L58.2231,19.6406 L54.2544,19.6406 L54.2544,22.0938 L55.7388,22.0938 Q55.7388,21.4375 55.8638,21.25 Q56.1294,20.8438 56.5981,20.8438 Q56.9731,20.8438 57.2075,21.1094 Q57.4419,21.3594 57.4419,21.9688 L57.4419,23.9375 Q57.4419,24.4844 57.3169,24.6719 Q57.0513,25.0625 56.5981,25.0625 Q56.1294,25.0625 55.8638,24.6563 Q55.7388,24.4688 55.7388,23.7969 L54.2544,23.7969 Z " fill="#000000"/><text fill="#000000" font-family="sans-serif" font-size="14" lengthAdjust="spacing" textLength="70.0342" x="75.895" y="28.7285">python&#38382;&#39064;</text><line style="stroke:#181818;stroke-width:0.5;" x1="8" x2="181.3242" y1="39" y2="39"/><ellipse cx="18" cy="53.3047" fill="none" rx="3" ry="3" style="stroke:#038048;stroke-width:1;"/><text fill="#000000" font-family="sans-serif" font-size="14" lengthAdjust="spacing" textLength="28.793" x="27" y="57.5332">yield</text><line style="stroke:#181818;stroke-width:0.5;" x1="8" x2="181.3242" y1="64.6094" y2="64.6094"/><ellipse cx="18" cy="78.9141" fill="#84BE84" rx="3" ry="3" style="stroke:#038048;stroke-width:1;"/><text fill="#000000" font-family="sans-serif" font-size="14" lengthAdjust="spacing" textLength="149.3242" x="27" y="83.1426">&#20108;&#32500;&#20999;&#29255;(&#19981;&#23384;&#22312;&#35813;&#35821;&#27861;)</text></g><!--SRC=[IyqhpLKeg2p9oCzxENtToqKpghaKW41RuSckdkUxjppjQ7_UsQxnP4VlqxKpdivPyMBzqXVhrpxRF5KJggmoCpKdXQiM0000]--></g></svg>