<svg xmlns="http://www.w3.org/2000/svg" xmlns:xlink="http://www.w3.org/1999/xlink" contentStyleType="text/css" data-diagram-type="CLASS" height="150px" preserveAspectRatio="none" style="width:320px;height:150px;background:#FFFFFF;" version="1.1" viewBox="0 0 320 150" width="320px" zoomAndPan="magnify"><defs/><g><!--class StandardScaler--><g class="entity" data-entity="StandardScaler" data-source-line="1" data-uid="ent0002" id="entity_StandardScaler"><rect fill="#F1F1F1" height="136.0469" rx="2.5" ry="2.5" style="stroke:#181818;stroke-width:0.5;" width="128.5029" x="7" y="7"/><ellipse cx="22" cy="23" fill="#ADD1B2" rx="11" ry="11" style="stroke:#181818;stroke-width:1;"/><path d="M24.7656,18.875 Q24.9219,18.6563 25.1094,18.5469 Q25.2969,18.4375 25.5156,18.4375 Q25.8906,18.4375 26.125,18.7031 Q26.3594,18.9531 26.3594,19.5625 L26.3594,21.0156 Q26.3594,21.625 26.125,21.8906 Q25.8906,22.1563 25.5156,22.1563 Q25.1719,22.1563 24.9688,21.9531 Q24.7656,21.7656 24.6563,21.25 Q24.6094,20.8906 24.4219,20.7031 Q24.0938,20.3281 23.4844,20.1094 Q22.875,19.8906 22.25,19.8906 Q21.4844,19.8906 20.8438,20.2188 Q20.2188,20.5469 19.7188,21.2969 Q19.2344,22.0469 19.2344,23.0781 L19.2344,24.1719 Q19.2344,25.4063 20.125,26.2344 Q21.0156,27.0469 22.6094,27.0469 Q23.5469,27.0469 24.2031,26.7969 Q24.5938,26.6406 25.0156,26.2031 Q25.2813,25.9375 25.4219,25.8594 Q25.5781,25.7813 25.7813,25.7813 Q26.1094,25.7813 26.3594,26.0469 Q26.625,26.2969 26.625,26.6406 Q26.625,26.9844 26.2813,27.3906 Q25.7813,27.9688 24.9844,28.2969 Q23.9063,28.75 22.6094,28.75 Q21.0938,28.75 19.8906,28.125 Q18.9063,27.625 18.2188,26.5625 Q17.5313,25.4844 17.5313,24.2031 L17.5313,23.0469 Q17.5313,21.7188 18.1406,20.5781 Q18.7656,19.4219 19.8594,18.8125 Q20.9531,18.1875 22.1875,18.1875 Q22.9219,18.1875 23.5625,18.3594 Q24.2188,18.5156 24.7656,18.875 Z " fill="#000000"/><text fill="#000000" font-family="sans-serif" font-size="14" lengthAdjust="spacing" textLength="96.5029" x="36" y="28.7285">StandardScaler</text><line style="stroke:#181818;stroke-width:0.5;" x1="8" x2="134.5029" y1="39" y2="39"/><ellipse cx="18" cy="53.3047" fill="none" rx="3" ry="3" style="stroke:#038048;stroke-width:1;"/><text fill="#000000" font-family="sans-serif" font-size="14" lengthAdjust="spacing" textLength="42.8066" x="27" y="57.5332">mean_</text><ellipse cx="18" cy="70.9141" fill="none" rx="3" ry="3" style="stroke:#038048;stroke-width:1;"/><text fill="#000000" font-family="sans-serif" font-size="14" lengthAdjust="spacing" textLength="40.4688" x="27" y="75.1426">scale_</text><line style="stroke:#181818;stroke-width:0.5;" x1="8" x2="134.5029" y1="82.2188" y2="82.2188"/><ellipse cx="18" cy="96.5234" fill="#84BE84" rx="3" ry="3" style="stroke:#038048;stroke-width:1;"/><text fill="#000000" font-family="sans-serif" font-size="14" lengthAdjust="spacing" textLength="20.2139" x="27" y="100.752">fit()</text><ellipse cx="18" cy="114.1328" fill="#84BE84" rx="3" ry="3" style="stroke:#038048;stroke-width:1;"/><text fill="#000000" font-family="sans-serif" font-size="14" lengthAdjust="spacing" textLength="68.4482" x="27" y="118.3613">transform()</text><ellipse cx="18" cy="131.7422" fill="#84BE84" rx="3" ry="3" style="stroke:#038048;stroke-width:1;"/><text fill="#000000" font-family="sans-serif" font-size="14" lengthAdjust="spacing" textLength="87.124" x="27" y="135.9707">fit_transform()</text></g><!--class LinearRegression--><g class="entity" data-entity="LinearRegression" data-source-line="9" data-uid="ent0003" id="entity_LinearRegression"><rect fill="#F1F1F1" height="118.4375" rx="2.5" ry="2.5" style="stroke:#181818;stroke-width:0.5;" width="141.7305" x="171.5" y="16"/><ellipse cx="186.5" cy="32" fill="#ADD1B2" rx="11" ry="11" style="stroke:#181818;stroke-width:1;"/><path d="M189.2656,27.875 Q189.4219,27.6563 189.6094,27.5469 Q189.7969,27.4375 190.0156,27.4375 Q190.3906,27.4375 190.625,27.7031 Q190.8594,27.9531 190.8594,28.5625 L190.8594,30.0156 Q190.8594,30.625 190.625,30.8906 Q190.3906,31.1563 190.0156,31.1563 Q189.6719,31.1563 189.4688,30.9531 Q189.2656,30.7656 189.1563,30.25 Q189.1094,29.8906 188.9219,29.7031 Q188.5938,29.3281 187.9844,29.1094 Q187.375,28.8906 186.75,28.8906 Q185.9844,28.8906 185.3438,29.2188 Q184.7188,29.5469 184.2188,30.2969 Q183.7344,31.0469 183.7344,32.0781 L183.7344,33.1719 Q183.7344,34.4063 184.625,35.2344 Q185.5156,36.0469 187.1094,36.0469 Q188.0469,36.0469 188.7031,35.7969 Q189.0938,35.6406 189.5156,35.2031 Q189.7813,34.9375 189.9219,34.8594 Q190.0781,34.7813 190.2813,34.7813 Q190.6094,34.7813 190.8594,35.0469 Q191.125,35.2969 191.125,35.6406 Q191.125,35.9844 190.7813,36.3906 Q190.2813,36.9688 189.4844,37.2969 Q188.4063,37.75 187.1094,37.75 Q185.5938,37.75 184.3906,37.125 Q183.4063,36.625 182.7188,35.5625 Q182.0313,34.4844 182.0313,33.2031 L182.0313,32.0469 Q182.0313,30.7188 182.6406,29.5781 Q183.2656,28.4219 184.3594,27.8125 Q185.4531,27.1875 186.6875,27.1875 Q187.4219,27.1875 188.0625,27.3594 Q188.7188,27.5156 189.2656,27.875 Z " fill="#000000"/><text fill="#000000" font-family="sans-serif" font-size="14" lengthAdjust="spacing" textLength="109.7305" x="200.5" y="37.7285">LinearRegression</text><line style="stroke:#181818;stroke-width:0.5;" x1="172.5" x2="312.2305" y1="48" y2="48"/><ellipse cx="182.5" cy="62.3047" fill="none" rx="3" ry="3" style="stroke:#038048;stroke-width:1;"/><text fill="#000000" font-family="sans-serif" font-size="14" lengthAdjust="spacing" textLength="34.248" x="191.5" y="66.5332">coef_</text><ellipse cx="182.5" cy="79.9141" fill="none" rx="3" ry="3" style="stroke:#038048;stroke-width:1;"/><text fill="#000000" font-family="sans-serif" font-size="14" lengthAdjust="spacing" textLength="61.4824" x="191.5" y="84.1426">intercept_</text><line style="stroke:#181818;stroke-width:0.5;" x1="172.5" x2="312.2305" y1="91.2188" y2="91.2188"/><ellipse cx="182.5" cy="105.5234" fill="#84BE84" rx="3" ry="3" style="stroke:#038048;stroke-width:1;"/><text fill="#000000" font-family="sans-serif" font-size="14" lengthAdjust="spacing" textLength="20.2139" x="191.5" y="109.752">fit()</text><ellipse cx="182.5" cy="123.1328" fill="#84BE84" rx="3" ry="3" style="stroke:#038048;stroke-width:1;"/><text fill="#000000" font-family="sans-serif" font-size="14" lengthAdjust="spacing" textLength="51.3447" x="191.5" y="127.3613">predict()</text></g><!--SRC=[ROqn3iCm30Dtly9ZYtobK_C0Gv3fGa0Y1vAs87zlKYHTMat4aHHv8lSy1cabgoFJ1CjholiDkKdSxgSE8_NMRVwItIs_T0PfERKVxqhQKkBFp4CKP4-y3ExIzTyETxIhBnemnX8NM0nL-0XlRm00]--></g></svg>