<svg xmlns="http://www.w3.org/2000/svg" xmlns:xlink="http://www.w3.org/1999/xlink" contentStyleType="text/css" data-diagram-type="CLASS" height="121px" preserveAspectRatio="none" style="width:106px;height:121px;background:#FFFFFF;" version="1.1" viewBox="0 0 106 121" width="106px" zoomAndPan="magnify"><defs/><g><!--class ???--><g class="entity" data-entity="&#24211;&#38382;&#39064;" data-source-line="1" data-uid="ent0002" id="entity_&#24211;&#38382;&#39064;"><rect fill="#F1F1F1" height="100.8281" rx="2.5" ry="2.5" style="stroke:#181818;stroke-width:0.5;" width="85.917" x="7" y="7"/><ellipse cx="27.3626" cy="23" fill="#EB937F" rx="11" ry="11" style="stroke:#181818;stroke-width:1;"/><path d="M26.222,23.7969 L26.222,26.2969 L30.5501,26.2969 L30.5501,25.375 Q30.5501,24.7656 30.7845,24.5 Q31.0345,24.2344 31.4095,24.2344 Q31.7845,24.2344 32.0189,24.5 Q32.2533,24.7656 32.2533,25.375 L32.2533,28 L24.2533,28 Q23.6283,28 23.3626,27.7656 Q23.1126,27.5313 23.1126,27.1406 Q23.1126,26.7656 23.3783,26.5313 Q23.6439,26.2969 24.2533,26.2969 L24.5189,26.2969 L24.5189,19.6406 L24.2533,19.6406 Q23.6283,19.6406 23.3626,19.4063 Q23.1126,19.1719 23.1126,18.7813 Q23.1126,18.4063 23.3626,18.1719 Q23.6283,17.9375 24.2533,17.9375 L31.8783,17.9375 L31.8783,20.5313 Q31.8783,21.1406 31.6439,21.4063 Q31.4251,21.6563 31.0345,21.6563 Q30.6595,21.6563 30.4251,21.4063 Q30.1908,21.1406 30.1908,20.5313 L30.1908,19.6406 L26.222,19.6406 L26.222,22.0938 L27.7064,22.0938 Q27.7064,21.4375 27.8314,21.25 Q28.097,20.8438 28.5658,20.8438 Q28.9408,20.8438 29.1751,21.1094 Q29.4095,21.3594 29.4095,21.9688 L29.4095,23.9375 Q29.4095,24.4844 29.2845,24.6719 Q29.0189,25.0625 28.5658,25.0625 Q28.097,25.0625 27.8314,24.6563 Q27.7064,24.4688 27.7064,23.7969 L26.222,23.7969 Z " fill="#000000"/><text fill="#000000" font-family="sans-serif" font-size="14" lengthAdjust="spacing" textLength="42" x="42.5543" y="28.7285">&#24211;&#38382;&#39064;</text><line style="stroke:#181818;stroke-width:0.5;" x1="8" x2="91.917" y1="39" y2="39"/><ellipse cx="18" cy="53.3047" fill="none" rx="3" ry="3" style="stroke:#038048;stroke-width:1;"/><text fill="#000000" font-family="sans-serif" font-size="14" lengthAdjust="spacing" textLength="42.0205" x="27" y="57.5332">numpy</text><ellipse cx="18" cy="70.9141" fill="none" rx="3" ry="3" style="stroke:#038048;stroke-width:1;"/><text fill="#000000" font-family="sans-serif" font-size="14" lengthAdjust="spacing" textLength="45.1309" x="27" y="75.1426">sklearn</text><ellipse cx="18" cy="88.5234" fill="none" rx="3" ry="3" style="stroke:#038048;stroke-width:1;"/><text fill="#000000" font-family="sans-serif" font-size="14" lengthAdjust="spacing" textLength="59.917" x="27" y="92.752">matplotlib</text><line style="stroke:#181818;stroke-width:0.5;" x1="8" x2="91.917" y1="99.8281" y2="99.8281"/></g><!--SRC=[IyqhpLLukcloo-dhNYwQKSsb00JQ2a31WaeekpWx9pMnA0_AoqqiASZ9Byd9JEAg1G00]--></g></svg>