<svg xmlns="http://www.w3.org/2000/svg" xmlns:xlink="http://www.w3.org/1999/xlink" contentStyleType="text/css" data-diagram-type="CLASS" height="262px" preserveAspectRatio="none" style="width:316px;height:262px;background:#FFFFFF;" version="1.1" viewBox="0 0 316 262" width="316px" zoomAndPan="magnify"><defs/><g><!--class ?????????--><g class="entity" data-entity="&#25343;&#21040;&#38476;&#29983;&#20195;&#30721;&#24590;&#20040;&#21150;" data-source-line="1" data-uid="ent0002" id="entity_&#25343;&#21040;&#38476;&#29983;&#20195;&#30721;&#24590;&#20040;&#21150;"><rect fill="#F1F1F1" height="241.7031" rx="2.5" ry="2.5" style="stroke:#181818;stroke-width:0.5;" width="295.0967" x="7" y="7"/><ellipse cx="87.2983" cy="23" fill="#EB937F" rx="11" ry="11" style="stroke:#181818;stroke-width:1;"/><path d="M86.1577,23.7969 L86.1577,26.2969 L90.4858,26.2969 L90.4858,25.375 Q90.4858,24.7656 90.7202,24.5 Q90.9702,24.2344 91.3452,24.2344 Q91.7202,24.2344 91.9546,24.5 Q92.189,24.7656 92.189,25.375 L92.189,28 L84.189,28 Q83.564,28 83.2983,27.7656 Q83.0483,27.5313 83.0483,27.1406 Q83.0483,26.7656 83.314,26.5313 Q83.5796,26.2969 84.189,26.2969 L84.4546,26.2969 L84.4546,19.6406 L84.189,19.6406 Q83.564,19.6406 83.2983,19.4063 Q83.0483,19.1719 83.0483,18.7813 Q83.0483,18.4063 83.2983,18.1719 Q83.564,17.9375 84.189,17.9375 L91.814,17.9375 L91.814,20.5313 Q91.814,21.1406 91.5796,21.4063 Q91.3608,21.6563 90.9702,21.6563 Q90.5952,21.6563 90.3608,21.4063 Q90.1265,21.1406 90.1265,20.5313 L90.1265,19.6406 L86.1577,19.6406 L86.1577,22.0938 L87.6421,22.0938 Q87.6421,21.4375 87.7671,21.25 Q88.0327,20.8438 88.5015,20.8438 Q88.8765,20.8438 89.1108,21.1094 Q89.3452,21.3594 89.3452,21.9688 L89.3452,23.9375 Q89.3452,24.4844 89.2202,24.6719 Q88.9546,25.0625 88.5015,25.0625 Q88.0327,25.0625 87.7671,24.6563 Q87.6421,24.4688 87.6421,23.7969 L86.1577,23.7969 Z " fill="#000000"/><text fill="#000000" font-family="sans-serif" font-size="14" lengthAdjust="spacing" textLength="126" x="107.7983" y="28.7285">&#25343;&#21040;&#38476;&#29983;&#20195;&#30721;&#24590;&#20040;&#21150;</text><line style="stroke:#181818;stroke-width:0.5;" x1="8" x2="301.0967" y1="39" y2="39"/><ellipse cx="18" cy="53.3047" fill="none" rx="3" ry="3" style="stroke:#038048;stroke-width:1;"/><text fill="#000000" font-family="sans-serif" font-size="14" lengthAdjust="spacing" textLength="227.9238" x="27" y="57.5332">&#24555;&#36895;&#27983;&#35272;,&#26377;&#27809;&#26377;python&#22522;&#30784;&#35821;&#27861;&#38382;&#39064;</text><ellipse cx="18" cy="70.9141" fill="none" rx="3" ry="3" style="stroke:#038048;stroke-width:1;"/><text fill="#000000" font-family="sans-serif" font-size="14" lengthAdjust="spacing" textLength="241.8896" x="27" y="75.1426">&#30475;&#30475;&#23548;&#20837;&#20102;&#21738;&#20123;&#24211;,&#26377;&#27809;&#26377;&#20174;&#26410;&#35265;&#36807;&#30340;&#24211;</text><ellipse cx="18" cy="88.5234" fill="none" rx="3" ry="3" style="stroke:#038048;stroke-width:1;"/><text fill="#000000" font-family="sans-serif" font-size="14" lengthAdjust="spacing" textLength="168.7861" x="27" y="92.752">ai&#19968;&#19979;&#28304;&#20195;&#30721;,&#24555;&#36895;&#20102;&#35299;&#21547;&#20041;</text><ellipse cx="18" cy="106.1328" fill="none" rx="3" ry="3" style="stroke:#038048;stroke-width:1;"/><text fill="#000000" font-family="sans-serif" font-size="14" lengthAdjust="spacing" textLength="154.7861" x="27" y="110.3613">ai&#30456;&#20851;&#30693;&#35782;,&#36805;&#36895;&#20102;&#35299;&#19968;&#19979;</text><ellipse cx="18" cy="123.7422" fill="none" rx="3" ry="3" style="stroke:#038048;stroke-width:1;"/><text fill="#000000" font-family="sans-serif" font-size="14" lengthAdjust="spacing" textLength="115.8896" x="27" y="127.9707">&#22238;&#24402;&#20195;&#30721;,&#36880;&#27493;&#20998;&#26512;</text><ellipse cx="18" cy="141.3516" fill="none" rx="3" ry="3" style="stroke:#038048;stroke-width:1;"/><text fill="#000000" font-family="sans-serif" font-size="14" lengthAdjust="spacing" textLength="143.8896" x="27" y="145.5801">&#27599;&#29702;&#35299;&#19968;&#37096;&#20998;,&#32534;&#20889;&#25104;&#31867;</text><ellipse cx="18" cy="158.9609" fill="none" rx="3" ry="3" style="stroke:#038048;stroke-width:1;"/><text fill="#000000" font-family="sans-serif" font-size="14" lengthAdjust="spacing" textLength="269.0967" x="27" y="163.1895">&#19981;&#26126;&#30333;&#20043;&#22788;,&#36805;&#36895;debug'&#22238;&#24402;&#19978;&#38754;debug&#38382;&#39064;'</text><ellipse cx="18" cy="176.5703" fill="none" rx="3" ry="3" style="stroke:#038048;stroke-width:1;"/><text fill="#000000" font-family="sans-serif" font-size="14" lengthAdjust="spacing" textLength="231.7793" x="27" y="180.7988">&#28304;&#20195;&#30721;&#20998;&#26512;&#23436;&#20102;&#21518;,&#22238;&#24402;&#35838;&#26412;,&#20180;&#32454;&#21442;&#38405;</text><ellipse cx="18" cy="194.1797" fill="none" rx="3" ry="3" style="stroke:#038048;stroke-width:1;"/><text fill="#000000" font-family="sans-serif" font-size="14" lengthAdjust="spacing" textLength="157.8896" x="27" y="198.4082">&#30475;&#23436;&#35838;&#26412;&#21518;,&#20877;&#20998;&#26512;&#28304;&#20195;&#30721;</text><ellipse cx="18" cy="211.7891" fill="none" rx="3" ry="3" style="stroke:#038048;stroke-width:1;"/><text fill="#000000" font-family="sans-serif" font-size="14" lengthAdjust="spacing" textLength="115.8896" x="27" y="216.0176">&#20248;&#21270;&#33258;&#24049;&#20889;&#22909;&#30340;&#31867;.</text><ellipse cx="18" cy="229.3984" fill="none" rx="3" ry="3" style="stroke:#038048;stroke-width:1;"/><text fill="#000000" font-family="sans-serif" font-size="14" lengthAdjust="spacing" textLength="243.3457" x="27" y="233.627">&#26368;&#21518;&#20889;&#30456;&#20851;&#36923;&#36753;&#20998;&#26512;'&#20063;&#23601;&#26159;&#25105;&#30446;&#21069;&#20889;&#30340;'</text><line style="stroke:#181818;stroke-width:0.5;" x1="8" x2="301.0967" y1="240.7031" y2="240.7031"/></g><!--SRC=[HL3BJi905Dtp5UnOsFXF6ecwyB6GXJ4cHMafxoA8XLOg8C60K90O-m3wCtFdyHSEJ0kJoIpcFEwv9tsTkKhYKWZQdBNBf6cZO40-ibYk8a-3OlSXaUJdA0dXXCas_gtHaIPXgu1_UlozlR-xkBa6soSzcJfJl7nbRpFMDo8HiKhyWhC2POXy5HfZv9lWDmu6AAXYQqn7MHhcIIV7iKXwSebS6RabxEiYaIGIS1iw6e0-GLvXJoMc2ygIs4Fgg18DbJrFUCGhc5rOlqHkJDRnT0YQYhjwX6EdHlH8nPw_E2QHLGlKDjPqiWWY5d8hsAYIzXfv9VZCHUFEqgUPyrGqmIsoz_xkHxIHYWV4kuYnC2jlIz6haj1HPuEjRma5JHAeK7jYXdBeaPC5lkEh5M6nTup3hGmejsX-37yB7Xo6QrugptuS9x1ahkU8Q8p90TtKXLKAUJRC5zXmi5OdvWmAbIslaqib7XF_]--></g></svg>