<svg xmlns="http://www.w3.org/2000/svg" xmlns:xlink="http://www.w3.org/1999/xlink" contentStyleType="text/css" data-diagram-type="SALT" height="229px" preserveAspectRatio="none" style="width:282px;height:229px;background:#FFFFFF;" version="1.1" viewBox="0 0 282 229" width="282px" zoomAndPan="magnify"><defs/><g><text fill="#000000" font-family="sans-serif" font-size="12" font-weight="bold" lengthAdjust="spacing" textLength="49.5" x="8" y="18.457">&#24453;&#21150;&#20107;&#39033;</text><line style="stroke:#000000;stroke-width:1;" x1="6" x2="6" y1="6" y2="21.0938"/><line style="stroke:#000000;stroke-width:1;" x1="6" x2="60.5" y1="6" y2="6"/><line style="stroke:#000000;stroke-width:1;" x1="60.5" x2="60.5" y1="6" y2="21.0938"/><line style="stroke:#000000;stroke-width:1;" x1="60.5" x2="70.5" y1="21.0938" y2="21.0938"/><text fill="#000000" font-family="sans-serif" font-size="12" lengthAdjust="spacing" textLength="86.748" x="72.5" y="18.457">2025.10.2 21.22</text><line style="stroke:#000000;stroke-width:1;" x1="70.5" x2="70.5" y1="6" y2="21.0938"/><line style="stroke:#000000;stroke-width:1;" x1="70.5" x2="162.248" y1="6" y2="6"/><line style="stroke:#000000;stroke-width:1;" x1="162.248" x2="162.248" y1="6" y2="21.0938"/><line style="stroke:#000000;stroke-width:1;" x1="162.248" x2="172.248" y1="21.0938" y2="21.0938"/><text fill="#000000" font-family="sans-serif" font-size="12" lengthAdjust="spacing" textLength="24" x="174.248" y="18.457">&#22079;&#22079;</text><line style="stroke:#000000;stroke-width:1;" x1="172.248" x2="172.248" y1="6" y2="21.0938"/><line style="stroke:#000000;stroke-width:1;" x1="172.248" x2="201.248" y1="6" y2="6"/><line style="stroke:#000000;stroke-width:1;" x1="201.248" x2="201.248" y1="6" y2="21.0938"/><line style="stroke:#000000;stroke-width:1;" x1="201.248" x2="211.248" y1="21.0938" y2="21.0938"/><text fill="#000000" font-family="sans-serif" font-size="12" lengthAdjust="spacing" textLength="48" x="213.248" y="18.457">&#22079;&#22079;&#22079;&#21704;</text><line style="stroke:#000000;stroke-width:1;" x1="211.248" x2="211.248" y1="6" y2="21.0938"/><line style="stroke:#000000;stroke-width:1;" x1="211.248" x2="264.248" y1="6" y2="6"/><line style="stroke:#000000;stroke-width:1;" x1="264.248" x2="264.248" y1="6" y2="21.0938"/><line style="stroke:#000000;stroke-width:1;" x1="264.248" x2="274.248" y1="21.0938" y2="21.0938"/><text fill="#008000" font-family="sans-serif" font-size="12" lengthAdjust="spacing" textLength="161.4199" x="27" y="36.5508">Smooth images when zoomed</text><rect fill="none" height="10" style="stroke:#000000;stroke-width:1.5;" width="10" x="9" y="26.6406"/><polygon fill="#000000" points="10,30.0938,13,33.0938,20,24.0938,13,31.0938" style="stroke:#000000;stroke-width:1.5;"/><text fill="#008000" font-family="sans-serif" font-size="12" lengthAdjust="spacing" textLength="123.3926" x="27" y="53.6445">Confirm image deletion</text><rect fill="none" height="10" style="stroke:#000000;stroke-width:1.5;" width="10" x="9" y="43.7344"/><polygon fill="#000000" points="10,47.1875,13,50.1875,20,41.1875,13,48.1875" style="stroke:#000000;stroke-width:1.5;"/><text fill="#FF0000" font-family="sans-serif" font-size="12" lengthAdjust="spacing" textLength="111.4043" x="27" y="70.7383">Show hidden images</text><rect fill="none" height="10" style="stroke:#000000;stroke-width:1.5;" width="10" x="9" y="60.8281"/><text fill="#000000" font-family="sans-serif" font-size="12" lengthAdjust="spacing" textLength="24" x="27" y="87.832">&#21999;&#21756;</text><ellipse cx="14" cy="82.9219" fill="none" rx="5" ry="5" style="stroke:#000000;stroke-width:1.5;"/><text fill="#000000" font-family="sans-serif" font-size="12" lengthAdjust="spacing" textLength="24.6738" x="27" y="104.9258">yess</text><ellipse cx="14" cy="100.0156" fill="none" rx="5" ry="5" style="stroke:#000000;stroke-width:1.5;"/><ellipse cx="14" cy="100.0156" fill="#000000" rx="2" ry="2" style="stroke:#000000;stroke-width:1.5;"/><line style="stroke:#AAAAAA;stroke-width:1;" x1="6" x2="275.248" y1="113.0625" y2="113.0625"/><line style="stroke:#AAAAAA;stroke-width:1;" x1="6" x2="275.248" y1="115.0625" y2="115.0625"/><text fill="#000000" font-family="sans-serif" font-size="12" font-weight="bold" lengthAdjust="spacing" textLength="61.875" x="11.334" y="131.0195">&#21478;&#19968;&#20010;&#27979;&#35797;</text><line style="stroke:#000000;stroke-width:1;" x1="6" x2="6" y1="118.5625" y2="133.6563"/><line style="stroke:#000000;stroke-width:1;" x1="6" x2="76.209" y1="118.5625" y2="118.5625"/><line style="stroke:#000000;stroke-width:1;" x1="76.209" x2="76.209" y1="118.5625" y2="133.6563"/><line style="stroke:#000000;stroke-width:1;" x1="76.209" x2="86.209" y1="133.6563" y2="133.6563"/><text fill="#000000" font-family="sans-serif" font-size="12" lengthAdjust="spacing" textLength="86.748" x="88.209" y="131.0195">2025.10.2 21.25</text><line style="stroke:#000000;stroke-width:1;" x1="86.209" x2="86.209" y1="118.5625" y2="133.6563"/><line style="stroke:#000000;stroke-width:1;" x1="86.209" x2="177.957" y1="118.5625" y2="118.5625"/><line style="stroke:#000000;stroke-width:1;" x1="177.957" x2="177.957" y1="118.5625" y2="133.6563"/><line style="stroke:#000000;stroke-width:1;" x1="177.957" x2="187.957" y1="133.6563" y2="133.6563"/><text fill="#000000" font-family="sans-serif" font-size="12" lengthAdjust="spacing" textLength="30.6738" x="189.957" y="131.0195">&#21999;&#21756;?</text><line style="stroke:#000000;stroke-width:1;" x1="187.957" x2="187.957" y1="118.5625" y2="133.6563"/><line style="stroke:#000000;stroke-width:1;" x1="187.957" x2="223.6309" y1="118.5625" y2="118.5625"/><line style="stroke:#000000;stroke-width:1;" x1="223.6309" x2="223.6309" y1="118.5625" y2="133.6563"/><line style="stroke:#000000;stroke-width:1;" x1="223.6309" x2="233.6309" y1="133.6563" y2="133.6563"/><text fill="#000000" font-family="sans-serif" font-size="12" lengthAdjust="spacing" textLength="24" x="235.6309" y="131.0195">&#21734;&#21734;</text><line style="stroke:#000000;stroke-width:1;" x1="233.6309" x2="233.6309" y1="118.5625" y2="133.6563"/><line style="stroke:#000000;stroke-width:1;" x1="233.6309" x2="262.6309" y1="118.5625" y2="118.5625"/><line style="stroke:#000000;stroke-width:1;" x1="262.6309" x2="262.6309" y1="118.5625" y2="133.6563"/><line style="stroke:#000000;stroke-width:1;" x1="262.6309" x2="272.6309" y1="133.6563" y2="133.6563"/><text fill="#000000" font-family="sans-serif" font-size="12" lengthAdjust="spacing" textLength="18.6738" x="27" y="149.1133">&#36825;?</text><rect fill="none" height="10" style="stroke:#000000;stroke-width:1.5;" width="10" x="9" y="139.2031"/><polygon fill="#000000" points="10,142.6563,13,145.6563,20,136.6563,13,143.6563" style="stroke:#000000;stroke-width:1.5;"/><text fill="#000000" font-family="sans-serif" font-size="12" lengthAdjust="spacing" textLength="18.6738" x="27" y="166.207">&#21834;?</text><rect fill="none" height="10" style="stroke:#000000;stroke-width:1.5;" width="10" x="9" y="156.2969"/><text fill="#000000" font-family="sans-serif" font-size="12" lengthAdjust="spacing" textLength="36" x="27" y="183.3008">&#21704;&#21834;&#21704;</text><rect fill="none" height="10" style="stroke:#000000;stroke-width:1.5;" width="10" x="9" y="173.3906"/><text fill="#000000" font-family="sans-serif" font-size="12" lengthAdjust="spacing" textLength="48" x="27" y="200.3945">&#22079;&#22079;&#22079;&#21704;</text><ellipse cx="14" cy="195.4844" fill="none" rx="5" ry="5" style="stroke:#000000;stroke-width:1.5;"/><text fill="#000000" font-family="sans-serif" font-size="12" lengthAdjust="spacing" textLength="24" x="27" y="217.4883">&#21908;&#21908;</text><ellipse cx="14" cy="212.5781" fill="none" rx="5" ry="5" style="stroke:#000000;stroke-width:1.5;"/><ellipse cx="14" cy="212.5781" fill="#000000" rx="2" ry="2" style="stroke:#000000;stroke-width:1.5;"/><line style="stroke:#000000;stroke-width:1;" x1="5" x2="275.248" y1="5" y2="5"/><line style="stroke:#000000;stroke-width:1;" x1="5" x2="275.248" y1="222.125" y2="222.125"/><line style="stroke:#000000;stroke-width:1;" x1="5" x2="5" y1="5" y2="22.0938"/><line style="stroke:#000000;stroke-width:1;" x1="275.248" x2="275.248" y1="22.0938" y2="109.5625"/><line style="stroke:#000000;stroke-width:1;" x1="275.248" x2="275.248" y1="5" y2="22.0938"/><line style="stroke:#000000;stroke-width:1;" x1="5" x2="5" y1="134.6563" y2="222.125"/><line style="stroke:#000000;stroke-width:1;" x1="5" x2="5" y1="117.5625" y2="134.6563"/><line style="stroke:#000000;stroke-width:1;" x1="275.248" x2="275.248" y1="134.6563" y2="222.125"/><line style="stroke:#000000;stroke-width:1;" x1="5" x2="5" y1="109.5625" y2="117.5625"/><line style="stroke:#000000;stroke-width:1;" x1="275.248" x2="275.248" y1="117.5625" y2="134.6563"/><line style="stroke:#000000;stroke-width:1;" x1="5" x2="5" y1="22.0938" y2="109.5625"/><line style="stroke:#000000;stroke-width:1;" x1="275.248" x2="275.248" y1="109.5625" y2="117.5625"/><!--SRC=[TL9DRnCn4BtxLymngwfXipHjjIffHGX5KHPLR5fLGZsuMJThaRMHxKtL9f6u85NjWKCe7nSaBZrmwGcf84J_J1QLVy4u6nBsm6ZyzJGpVdxZBMseCfhs31YgNv314XdSWut3MlRpTNR-QVBzulVdRp04p_MgvOfRzi2hb3qFaUp3BJeCyzNw-6n406s0Oxgnzdp_03OwiYULtrMCYLgOI6bYu0djCWt7CHDmAcN2el-drAKuuYh9So1YFMQu57dm8WlcMOf5jJ2Mnn3pACBw-Ltpo983sVlhRFnZWUmxSCAqdXSSaGTePAO5P6-k9ZUl9ZTVVdszkBk-71RLg5erfWKtxMvyXJvJel2ckzkFcmlW0BBBy-9vV8OGpWMc_yXRu9kzUui-OpiYMqn4jes4xFIeCBj12_fCQQiJKhHyxvV2L40JXrk1ogfVNVEz5TWEsalkkk-wqnOxfBIzqm8jKzL1fRasYX-cLcs7D6cVmhDK69um7-ofr0uS21j_GMY8FbTI94mOqjmByY1u8atuKfffyEhAyaDk86GAoS5UG1wn8vhYvsk8ZeouwFgmstwyl4vQL7HJx9eFfp6fIxn0dVXGV_e7]--></g></svg>